<?xml version="1.0" encoding="UTF-8" standalone="no"?>
<!DOCTYPE svg PUBLIC "-//W3C//DTD SVG 1.1//EN"
 "http://www.w3.org/Graphics/SVG/1.1/DTD/svg11.dtd">
<!-- Generated by graphviz version 2.44.1 (20200629.0846)
 -->
<!-- Title: G Pages: 1 -->
<svg width="504pt" height="2552pt"
 viewBox="0.00 0.00 504.00 2552.00" xmlns="http://www.w3.org/2000/svg" xmlns:xlink="http://www.w3.org/1999/xlink">
<g id="graph0" class="graph" transform="scale(1 1) rotate(0) translate(4 2548)">
<title>G</title>
<polygon fill="white" stroke="transparent" points="-4,4 -4,-2548 500,-2548 500,4 -4,4"/>
<g id="clust1" class="cluster">
<title>cluster_Global</title>
<polygon fill="none" stroke="black" points="8,-8 8,-2536 488,-2536 488,-8 8,-8"/>
<text text-anchor="middle" x="248" y="-2523.2" font-family="Times,serif" font-size="11.00" fill="gray">Global</text>
</g>
<g id="clust2" class="cluster">
<title>cluster_\BlueRaster</title>
<polygon fill="none" stroke="black" points="16,-16 16,-2196 480,-2196 480,-16 16,-16"/>
<text text-anchor="middle" x="248" y="-2183.2" font-family="Times,serif" font-size="11.00" fill="gray">BlueRaster</text>
</g>
<g id="clust3" class="cluster">
<title>cluster_\BlueRaster\PowerBIAuthProxy</title>
<polygon fill="none" stroke="black" points="24,-24 24,-2168 472,-2168 472,-24 24,-24"/>
<text text-anchor="middle" x="248" y="-2155.2" font-family="Times,serif" font-size="11.00" fill="gray">PowerBIAuthProxy</text>
</g>
<g id="clust4" class="cluster">
<title>cluster_\BlueRaster\PowerBIAuthProxy\Admin</title>
<polygon fill="none" stroke="black" points="283,-1450 283,-1522 383,-1522 383,-1450 283,-1450"/>
<text text-anchor="middle" x="333" y="-1509.2" font-family="Times,serif" font-size="11.00" fill="gray">Admin</text>
</g>
<g id="clust5" class="cluster">
<title>cluster_\BlueRaster\PowerBIAuthProxy\Exceptions</title>
<polygon fill="none" stroke="black" points="202,-1772 202,-2006 464,-2006 464,-1772 202,-1772"/>
<text text-anchor="middle" x="333" y="-1993.2" font-family="Times,serif" font-size="11.00" fill="gray">Exceptions</text>
</g>
<g id="clust6" class="cluster">
<title>cluster_\BlueRaster\PowerBIAuthProxy\Frameworks</title>
<polygon fill="none" stroke="black" points="39,-1530 39,-1764 386.5,-1764 386.5,-1530 39,-1530"/>
<text text-anchor="middle" x="212.75" y="-1751.2" font-family="Times,serif" font-size="11.00" fill="gray">Frameworks</text>
</g>
<g id="clust7" class="cluster">
<title>cluster_\BlueRaster\PowerBIAuthProxy\Installers</title>
<polygon fill="none" stroke="black" points="249,-2014 249,-2140 417,-2140 417,-2014 249,-2014"/>
<text text-anchor="middle" x="333" y="-2127.2" font-family="Times,serif" font-size="11.00" fill="gray">Installers</text>
</g>
<g id="clust8" class="cluster">
<title>cluster_\BlueRaster\PowerBIAuthProxy\Traits</title>
<polygon fill="none" stroke="black" points="286.5,-1370 286.5,-1442 379.5,-1442 379.5,-1370 286.5,-1370"/>
<text text-anchor="middle" x="333" y="-1429.2" font-family="Times,serif" font-size="11.00" fill="gray">Traits</text>
</g>
<g id="clust9" class="cluster">
<title>cluster_\BlueRaster\PowerBIAuthProxy\Urls</title>
<polygon fill="none" stroke="black" points="45.5,-1236 45.5,-1362 400,-1362 400,-1236 45.5,-1236"/>
<text text-anchor="middle" x="222.75" y="-1349.2" font-family="Times,serif" font-size="11.00" fill="gray">Urls</text>
</g>
<g id="clust10" class="cluster">
<title>cluster_\BlueRaster\PowerBIAuthProxy\UserProviders</title>
<polygon fill="none" stroke="black" points="32,-832 32,-1228 403.5,-1228 403.5,-832 32,-832"/>
<text text-anchor="middle" x="217.75" y="-1215.2" font-family="Times,serif" font-size="11.00" fill="gray">UserProviders</text>
</g>
<g id="clust11" class="cluster">
<title>cluster_\BlueRaster\PowerBIAuthProxy\Utils</title>
<polygon fill="none" stroke="black" points="298,-752 298,-824 368,-824 368,-752 298,-752"/>
<text text-anchor="middle" x="333" y="-811.2" font-family="Times,serif" font-size="11.00" fill="gray">Utils</text>
</g>
<g id="clust12" class="cluster">
<title>cluster_\BlueRaster\PowerBIAuthProxy\Views</title>
<polygon fill="none" stroke="black" points="298,-672 298,-744 368,-744 368,-672 298,-672"/>
<text text-anchor="middle" x="333" y="-731.2" font-family="Times,serif" font-size="11.00" fill="gray">Views</text>
</g>
<g id="clust13" class="cluster">
<title>cluster_Global\Illuminate</title>
<polygon fill="none" stroke="black" points="25.55,-2400 25.55,-2508 152.45,-2508 152.45,-2400 25.55,-2400"/>
<text text-anchor="middle" x="89" y="-2495.2" font-family="Times,serif" font-size="11.00" fill="gray">Illuminate</text>
</g>
<g id="clust14" class="cluster">
<title>cluster_Global\Illuminate\Support</title>
<polygon fill="none" stroke="black" points="33.55,-2408 33.55,-2480 144.45,-2480 144.45,-2408 33.55,-2408"/>
<text text-anchor="middle" x="89" y="-2467.2" font-family="Times,serif" font-size="11.00" fill="gray">Support</text>
</g>
<g id="clust15" class="cluster">
<title>cluster_Global\BlueRaster</title>
<polygon fill="none" stroke="black" points="25.35,-2248 25.35,-2392 152.65,-2392 152.65,-2248 25.35,-2248"/>
<text text-anchor="middle" x="89" y="-2379.2" font-family="Times,serif" font-size="11.00" fill="gray">BlueRaster</text>
</g>
<g id="clust16" class="cluster">
<title>cluster_Global\BlueRaster\PowerBIAuthProxy</title>
<polygon fill="none" stroke="black" points="33.35,-2256 33.35,-2364 144.65,-2364 144.65,-2256 33.35,-2256"/>
<text text-anchor="middle" x="89" y="-2351.2" font-family="Times,serif" font-size="11.00" fill="gray">PowerBIAuthProxy</text>
</g>
<g id="clust17" class="cluster">
<title>cluster_Global\BlueRaster\PowerBIAuthProxy\Installers</title>
<polygon fill="none" stroke="black" points="41.35,-2264 41.35,-2336 136.65,-2336 136.65,-2264 41.35,-2264"/>
<text text-anchor="middle" x="89" y="-2323.2" font-family="Times,serif" font-size="11.00" fill="gray">Installers</text>
</g>
<!-- \\BlueRaster\\PowerBIAuthProxy\\Admin\\AdminRoute -->
<g id="node1" class="node">
<title>\\BlueRaster\\PowerBIAuthProxy\\Admin\\AdminRoute</title>
<polygon fill="none" stroke="black" points="375,-1494 291,-1494 291,-1458 375,-1458 375,-1494"/>
<text text-anchor="middle" x="333" y="-1473.2" font-family="Courier,monospace" font-size="11.00">AdminRoute</text>
</g>
<!-- \\BlueRaster\\PowerBIAuthProxy\\Route -->
<g id="node34" class="node">
<title>\\BlueRaster\\PowerBIAuthProxy\\Route</title>
<polygon fill="none" stroke="black" points="116,-554 62,-554 62,-518 116,-518 116,-554"/>
<text text-anchor="middle" x="89" y="-533.2" font-family="Courier,monospace" font-size="11.00">Route</text>
</g>
<!-- \\BlueRaster\\PowerBIAuthProxy\\Admin\\AdminRoute&#45;&gt;\\BlueRaster\\PowerBIAuthProxy\\Route -->
<g id="edge1" class="edge">
<title>\\BlueRaster\\PowerBIAuthProxy\\Admin\\AdminRoute&#45;&gt;\\BlueRaster\\PowerBIAuthProxy\\Route</title>
<path fill="none" stroke="black" d="M290.71,-1478.28C261.4,-1477.46 223.56,-1470.99 202,-1446 157,-1393.84 162.63,-896.16 152.65,-828 138.3,-730.09 110.53,-615.88 97.32,-564.09"/>
<polygon fill="none" stroke="black" points="100.68,-563.11 94.81,-554.3 93.9,-564.85 100.68,-563.11"/>
</g>
<!-- \\BlueRaster\\PowerBIAuthProxy\\Exceptions\\IdCannotBeDeterminedException -->
<g id="node2" class="node">
<title>\\BlueRaster\\PowerBIAuthProxy\\Exceptions\\IdCannotBeDeterminedException</title>
<polygon fill="none" stroke="black" points="439,-1978 227,-1978 227,-1942 439,-1942 439,-1978"/>
<text text-anchor="middle" x="333" y="-1957.2" font-family="Courier,monospace" font-size="11.00">IdCannotBeDeterminedException</text>
</g>
<!-- Exception -->
<g id="node42" class="node">
<title>Exception</title>
<ellipse fill="none" stroke="black" cx="89" cy="-2222" rx="46.29" ry="18"/>
<text text-anchor="middle" x="89" y="-2218.3" font-family="Times,serif" font-size="14.00" fill="gray">Exception</text>
</g>
<!-- \\BlueRaster\\PowerBIAuthProxy\\Exceptions\\IdCannotBeDeterminedException&#45;&gt;Exception -->
<g id="edge3" class="edge">
<title>\\BlueRaster\\PowerBIAuthProxy\\Exceptions\\IdCannotBeDeterminedException&#45;&gt;Exception</title>
<path fill="none" stroke="black" d="M258.08,-1978.09C238.25,-1985.55 217.91,-1995.87 202,-2010 144.24,-2061.27 111.37,-2149.59 97.65,-2194.32"/>
<polygon fill="none" stroke="black" points="94.29,-2193.36 94.8,-2203.94 101,-2195.35 94.29,-2193.36"/>
</g>
<!-- \\BlueRaster\\PowerBIAuthProxy\\Exceptions\\IllegalClassDirectoryListException -->
<g id="node3" class="node">
<title>\\BlueRaster\\PowerBIAuthProxy\\Exceptions\\IllegalClassDirectoryListException</title>
<polygon fill="none" stroke="black" points="456,-1924 210,-1924 210,-1888 456,-1888 456,-1924"/>
<text text-anchor="middle" x="333" y="-1903.2" font-family="Courier,monospace" font-size="11.00">IllegalClassDirectoryListException</text>
</g>
<!-- \\BlueRaster\\PowerBIAuthProxy\\Exceptions\\IllegalClassDirectoryListException&#45;&gt;Exception -->
<g id="edge4" class="edge">
<title>\\BlueRaster\\PowerBIAuthProxy\\Exceptions\\IllegalClassDirectoryListException&#45;&gt;Exception</title>
<path fill="none" stroke="black" d="M214.71,-1924.04C210.22,-1926.68 205.96,-1929.65 202,-1933 121.22,-2001.44 98.45,-2135.39 92.24,-2193.73"/>
<polygon fill="none" stroke="black" points="88.75,-2193.41 91.26,-2203.7 95.72,-2194.09 88.75,-2193.41"/>
</g>
<!-- \\BlueRaster\\PowerBIAuthProxy\\Exceptions\\MissingConfigException -->
<g id="node4" class="node">
<title>\\BlueRaster\\PowerBIAuthProxy\\Exceptions\\MissingConfigException</title>
<polygon fill="none" stroke="black" points="415.5,-1870 250.5,-1870 250.5,-1834 415.5,-1834 415.5,-1870"/>
<text text-anchor="middle" x="333" y="-1849.2" font-family="Courier,monospace" font-size="11.00">MissingConfigException</text>
</g>
<!-- \\BlueRaster\\PowerBIAuthProxy\\Exceptions\\MissingConfigException&#45;&gt;Exception -->
<g id="edge5" class="edge">
<title>\\BlueRaster\\PowerBIAuthProxy\\Exceptions\\MissingConfigException&#45;&gt;Exception</title>
<path fill="none" stroke="black" d="M250.28,-1855.62C232.7,-1859.82 215.4,-1867.01 202,-1879 107.81,-1963.29 92.52,-2127.78 90.27,-2193.69"/>
<polygon fill="none" stroke="black" points="86.77,-2193.66 90,-2203.75 93.77,-2193.85 86.77,-2193.66"/>
</g>
<!-- \\BlueRaster\\PowerBIAuthProxy\\Exceptions\\MissingUserProviderException -->
<g id="node5" class="node">
<title>\\BlueRaster\\PowerBIAuthProxy\\Exceptions\\MissingUserProviderException</title>
<polygon fill="none" stroke="black" points="436,-1816 230,-1816 230,-1780 436,-1780 436,-1816"/>
<text text-anchor="middle" x="333" y="-1795.2" font-family="Courier,monospace" font-size="11.00">MissingUserProviderException</text>
</g>
<!-- \\BlueRaster\\PowerBIAuthProxy\\Exceptions\\MissingUserProviderException&#45;&gt;Exception -->
<g id="edge6" class="edge">
<title>\\BlueRaster\\PowerBIAuthProxy\\Exceptions\\MissingUserProviderException&#45;&gt;Exception</title>
<path fill="none" stroke="black" d="M229.7,-1807.7C219.52,-1811.91 210.01,-1817.53 202,-1825 146.85,-1876.41 106.66,-2111.79 94.12,-2193.76"/>
<polygon fill="none" stroke="black" points="90.63,-2193.43 92.6,-2203.84 97.55,-2194.48 90.63,-2193.43"/>
</g>
<!-- \\BlueRaster\\PowerBIAuthProxy\\Frameworks\\CodeIgniter -->
<g id="node6" class="node">
<title>\\BlueRaster\\PowerBIAuthProxy\\Frameworks\\CodeIgniter</title>
<polygon fill="none" stroke="black" points="378.5,-1736 287.5,-1736 287.5,-1700 378.5,-1700 378.5,-1736"/>
<text text-anchor="middle" x="333" y="-1715.2" font-family="Courier,monospace" font-size="11.00">CodeIgniter</text>
</g>
<!-- \\BlueRaster\\PowerBIAuthProxy\\Frameworks\\Framework -->
<g id="node7" class="node">
<title>\\BlueRaster\\PowerBIAuthProxy\\Frameworks\\Framework</title>
<polygon fill="none" stroke="black" points="131,-1655 47,-1655 47,-1619 131,-1619 131,-1655"/>
<text text-anchor="start" x="55" y="-1640.2" font-family="Courier,monospace" font-size="11.00">«abstract»</text>
<text text-anchor="start" x="58.5" y="-1628.2" font-family="Courier,monospace" font-size="11.00">Framework</text>
</g>
<!-- \\BlueRaster\\PowerBIAuthProxy\\Frameworks\\CodeIgniter&#45;&gt;\\BlueRaster\\PowerBIAuthProxy\\Frameworks\\Framework -->
<g id="edge7" class="edge">
<title>\\BlueRaster\\PowerBIAuthProxy\\Frameworks\\CodeIgniter&#45;&gt;\\BlueRaster\\PowerBIAuthProxy\\Frameworks\\Framework</title>
<path fill="none" stroke="black" d="M287.47,-1712.91C261.79,-1708.97 229.29,-1702.22 202,-1691 177.82,-1681.06 176.11,-1670.52 152.65,-1659 148.81,-1657.11 144.76,-1655.31 140.65,-1653.61"/>
<polygon fill="none" stroke="black" points="141.6,-1650.22 131.02,-1649.83 139.05,-1656.74 141.6,-1650.22"/>
</g>
<!-- \\BlueRaster\\PowerBIAuthProxy\\Frameworks\\Laravel -->
<g id="node8" class="node">
<title>\\BlueRaster\\PowerBIAuthProxy\\Frameworks\\Laravel</title>
<polygon fill="none" stroke="black" points="365,-1682 301,-1682 301,-1646 365,-1646 365,-1682"/>
<text text-anchor="middle" x="333" y="-1661.2" font-family="Courier,monospace" font-size="11.00">Laravel</text>
</g>
<!-- \\BlueRaster\\PowerBIAuthProxy\\Frameworks\\Laravel&#45;&gt;\\BlueRaster\\PowerBIAuthProxy\\Frameworks\\Framework -->
<g id="edge8" class="edge">
<title>\\BlueRaster\\PowerBIAuthProxy\\Frameworks\\Laravel&#45;&gt;\\BlueRaster\\PowerBIAuthProxy\\Frameworks\\Framework</title>
<path fill="none" stroke="black" d="M300.86,-1660.53C260.46,-1656.02 189.43,-1648.09 141.08,-1642.7"/>
<polygon fill="none" stroke="black" points="141.46,-1639.22 131.13,-1641.59 140.68,-1646.18 141.46,-1639.22"/>
</g>
<!-- \\BlueRaster\\PowerBIAuthProxy\\Frameworks\\Mock -->
<g id="node9" class="node">
<title>\\BlueRaster\\PowerBIAuthProxy\\Frameworks\\Mock</title>
<polygon fill="none" stroke="black" points="360,-1628 306,-1628 306,-1592 360,-1592 360,-1628"/>
<text text-anchor="middle" x="333" y="-1607.2" font-family="Courier,monospace" font-size="11.00">Mock</text>
</g>
<!-- \\BlueRaster\\PowerBIAuthProxy\\Frameworks\\Mock&#45;&gt;\\BlueRaster\\PowerBIAuthProxy\\Frameworks\\Framework -->
<g id="edge9" class="edge">
<title>\\BlueRaster\\PowerBIAuthProxy\\Frameworks\\Mock&#45;&gt;\\BlueRaster\\PowerBIAuthProxy\\Frameworks\\Framework</title>
<path fill="none" stroke="black" d="M305.64,-1612.94C266.33,-1617.33 191.59,-1625.67 141.27,-1631.28"/>
<polygon fill="none" stroke="black" points="140.79,-1627.81 131.24,-1632.4 141.57,-1634.77 140.79,-1627.81"/>
</g>
<!-- \\BlueRaster\\PowerBIAuthProxy\\Frameworks\\Wordpress -->
<g id="node10" class="node">
<title>\\BlueRaster\\PowerBIAuthProxy\\Frameworks\\Wordpress</title>
<polygon fill="none" stroke="black" points="371.5,-1574 294.5,-1574 294.5,-1538 371.5,-1538 371.5,-1574"/>
<text text-anchor="middle" x="333" y="-1553.2" font-family="Courier,monospace" font-size="11.00">Wordpress</text>
</g>
<!-- \\BlueRaster\\PowerBIAuthProxy\\Frameworks\\Wordpress&#45;&gt;\\BlueRaster\\PowerBIAuthProxy\\Frameworks\\Framework -->
<g id="edge10" class="edge">
<title>\\BlueRaster\\PowerBIAuthProxy\\Frameworks\\Wordpress&#45;&gt;\\BlueRaster\\PowerBIAuthProxy\\Frameworks\\Framework</title>
<path fill="none" stroke="black" d="M294.37,-1561.31C268.06,-1565.63 232.34,-1572.71 202,-1583 177.89,-1591.18 152.22,-1603.28 131.55,-1613.96"/>
<polygon fill="none" stroke="black" points="129.66,-1611 122.43,-1618.74 132.91,-1617.2 129.66,-1611"/>
</g>
<!-- \\BlueRaster\\PowerBIAuthProxy\\Installers\\CodeIgniterInstaller -->
<g id="node11" class="node">
<title>\\BlueRaster\\PowerBIAuthProxy\\Installers\\CodeIgniterInstaller</title>
<polygon fill="none" stroke="black" points="409,-2112 257,-2112 257,-2076 409,-2076 409,-2112"/>
<text text-anchor="middle" x="333" y="-2091.2" font-family="Courier,monospace" font-size="11.00">CodeIgniterInstaller</text>
</g>
<!-- Console -->
<g id="node41" class="node">
<title>Console</title>
<ellipse fill="none" stroke="black" cx="89" cy="-2290" rx="39.79" ry="18"/>
<text text-anchor="middle" x="89" y="-2286.3" font-family="Times,serif" font-size="14.00" fill="gray">Console</text>
</g>
<!-- \\BlueRaster\\PowerBIAuthProxy\\Installers\\CodeIgniterInstaller&#45;&gt;Console -->
<g id="edge11" class="edge">
<title>\\BlueRaster\\PowerBIAuthProxy\\Installers\\CodeIgniterInstaller&#45;&gt;Console</title>
<path fill="none" stroke="black" d="M317.91,-2112.15C289.97,-2147.03 224.04,-2223.84 152.65,-2268 146.72,-2271.67 140.1,-2274.83 133.44,-2277.52"/>
<polygon fill="none" stroke="black" points="131.89,-2274.36 123.73,-2281.13 134.33,-2280.92 131.89,-2274.36"/>
</g>
<!-- \\BlueRaster\\PowerBIAuthProxy\\Installers\\Installer -->
<g id="node12" class="node">
<title>\\BlueRaster\\PowerBIAuthProxy\\Installers\\Installer</title>
<polygon fill="none" stroke="black" points="371.5,-2058 294.5,-2058 294.5,-2022 371.5,-2022 371.5,-2058"/>
<text text-anchor="middle" x="333" y="-2037.2" font-family="Courier,monospace" font-size="11.00">Installer</text>
</g>
<!-- \\BlueRaster\\PowerBIAuthProxy\\Traits\\Arrayable -->
<g id="node13" class="node">
<title>\\BlueRaster\\PowerBIAuthProxy\\Traits\\Arrayable</title>
<polygon fill="none" stroke="black" points="371.5,-1414 294.5,-1414 294.5,-1378 371.5,-1378 371.5,-1414"/>
<text text-anchor="middle" x="333" y="-1393.2" font-family="Courier,monospace" font-size="11.00">Arrayable</text>
</g>
<!-- \\BlueRaster\\PowerBIAuthProxy\\Urls\\EmbedUrl -->
<g id="node14" class="node">
<title>\\BlueRaster\\PowerBIAuthProxy\\Urls\\EmbedUrl</title>
<polygon fill="none" stroke="black" points="124.5,-1307 53.5,-1307 53.5,-1271 124.5,-1271 124.5,-1307"/>
<text text-anchor="middle" x="89" y="-1286.2" font-family="Courier,monospace" font-size="11.00">EmbedUrl</text>
</g>
<!-- \\BlueRaster\\PowerBIAuthProxy\\Urls\\EsriEmbedUrl -->
<g id="node15" class="node">
<title>\\BlueRaster\\PowerBIAuthProxy\\Urls\\EsriEmbedUrl</title>
<polygon fill="none" stroke="black" points="382,-1334 284,-1334 284,-1298 382,-1298 382,-1334"/>
<text text-anchor="middle" x="333" y="-1313.2" font-family="Courier,monospace" font-size="11.00">EsriEmbedUrl</text>
</g>
<!-- \\BlueRaster\\PowerBIAuthProxy\\Urls\\EsriEmbedUrl&#45;&gt;\\BlueRaster\\PowerBIAuthProxy\\Urls\\EmbedUrl -->
<g id="edge13" class="edge">
<title>\\BlueRaster\\PowerBIAuthProxy\\Urls\\EsriEmbedUrl&#45;&gt;\\BlueRaster\\PowerBIAuthProxy\\Urls\\EmbedUrl</title>
<path fill="none" stroke="black" d="M283.9,-1310.63C240.48,-1305.79 177.08,-1298.72 134.73,-1293.99"/>
<polygon fill="none" stroke="black" points="135.04,-1290.5 124.71,-1292.87 134.26,-1297.46 135.04,-1290.5"/>
</g>
<!-- \\BlueRaster\\PowerBIAuthProxy\\Urls\\PowerBiEmbedUrl -->
<g id="node16" class="node">
<title>\\BlueRaster\\PowerBIAuthProxy\\Urls\\PowerBiEmbedUrl</title>
<polygon fill="none" stroke="black" points="392,-1280 274,-1280 274,-1244 392,-1244 392,-1280"/>
<text text-anchor="middle" x="333" y="-1259.2" font-family="Courier,monospace" font-size="11.00">PowerBiEmbedUrl</text>
</g>
<!-- \\BlueRaster\\PowerBIAuthProxy\\Urls\\PowerBiEmbedUrl&#45;&gt;\\BlueRaster\\PowerBIAuthProxy\\Urls\\EmbedUrl -->
<g id="edge14" class="edge">
<title>\\BlueRaster\\PowerBIAuthProxy\\Urls\\PowerBiEmbedUrl&#45;&gt;\\BlueRaster\\PowerBIAuthProxy\\Urls\\EmbedUrl</title>
<path fill="none" stroke="black" d="M273.73,-1268.5C230.97,-1273.27 173.78,-1279.65 134.63,-1284.02"/>
<polygon fill="none" stroke="black" points="134.14,-1280.55 124.59,-1285.14 134.92,-1287.51 134.14,-1280.55"/>
</g>
<!-- \\BlueRaster\\PowerBIAuthProxy\\UserProviders\\BaseUser -->
<g id="node17" class="node">
<title>\\BlueRaster\\PowerBIAuthProxy\\UserProviders\\BaseUser</title>
<polygon fill="none" stroke="black" points="368.5,-1200 297.5,-1200 297.5,-1164 368.5,-1164 368.5,-1200"/>
<text text-anchor="middle" x="333" y="-1179.2" font-family="Courier,monospace" font-size="11.00">BaseUser</text>
</g>
<!-- \\BlueRaster\\PowerBIAuthProxy\\UserProviders\\Eloquent -->
<g id="node18" class="node">
<title>\\BlueRaster\\PowerBIAuthProxy\\UserProviders\\Eloquent</title>
<polygon fill="none" stroke="black" points="368.5,-876 297.5,-876 297.5,-840 368.5,-840 368.5,-876"/>
<text text-anchor="middle" x="333" y="-855.2" font-family="Courier,monospace" font-size="11.00">Eloquent</text>
</g>
<!-- \\BlueRaster\\PowerBIAuthProxy\\UserProviders\\UserProvider -->
<g id="node23" class="node">
<title>\\BlueRaster\\PowerBIAuthProxy\\UserProviders\\UserProvider</title>
<polygon fill="none" stroke="black" points="138,-1038 40,-1038 40,-1002 138,-1002 138,-1038"/>
<text text-anchor="start" x="55" y="-1023.2" font-family="Courier,monospace" font-size="11.00">«abstract»</text>
<text text-anchor="start" x="48" y="-1011.2" font-family="Courier,monospace" font-size="11.00">UserProvider</text>
</g>
<!-- \\BlueRaster\\PowerBIAuthProxy\\UserProviders\\Eloquent&#45;&gt;\\BlueRaster\\PowerBIAuthProxy\\UserProviders\\UserProvider -->
<g id="edge15" class="edge">
<title>\\BlueRaster\\PowerBIAuthProxy\\UserProviders\\Eloquent&#45;&gt;\\BlueRaster\\PowerBIAuthProxy\\UserProviders\\UserProvider</title>
<path fill="none" stroke="black" d="M297.4,-856.84C268.86,-857.68 228.84,-863.21 202,-885 159.45,-919.54 192.81,-960.71 152.65,-998 150.93,-999.59 149.09,-1001.07 147.16,-1002.44"/>
<polygon fill="none" stroke="black" points="144.99,-999.67 138.21,-1007.81 148.58,-1005.67 144.99,-999.67"/>
</g>
<!-- \\BlueRaster\\PowerBIAuthProxy\\UserProviders\\MockUser -->
<g id="node19" class="node">
<title>\\BlueRaster\\PowerBIAuthProxy\\UserProviders\\MockUser</title>
<polygon fill="none" stroke="black" points="368.5,-1146 297.5,-1146 297.5,-1110 368.5,-1110 368.5,-1146"/>
<text text-anchor="middle" x="333" y="-1125.2" font-family="Courier,monospace" font-size="11.00">MockUser</text>
</g>
<!-- \\BlueRaster\\PowerBIAuthProxy\\UserProviders\\MockUser&#45;&gt;\\BlueRaster\\PowerBIAuthProxy\\UserProviders\\UserProvider -->
<g id="edge16" class="edge">
<title>\\BlueRaster\\PowerBIAuthProxy\\UserProviders\\MockUser&#45;&gt;\\BlueRaster\\PowerBIAuthProxy\\UserProviders\\UserProvider</title>
<path fill="none" stroke="black" d="M297.4,-1124.82C270.49,-1121.41 232.69,-1114.54 202,-1101 170.27,-1087 138.66,-1062.99 117.16,-1044.73"/>
<polygon fill="none" stroke="black" points="119.29,-1041.95 109.43,-1038.05 114.71,-1047.24 119.29,-1041.95"/>
</g>
<!-- \\BlueRaster\\PowerBIAuthProxy\\UserProviders\\MockUserProvider -->
<g id="node20" class="node">
<title>\\BlueRaster\\PowerBIAuthProxy\\UserProviders\\MockUserProvider</title>
<polygon fill="none" stroke="black" points="395.5,-1092 270.5,-1092 270.5,-1056 395.5,-1056 395.5,-1092"/>
<text text-anchor="middle" x="333" y="-1071.2" font-family="Courier,monospace" font-size="11.00">MockUserProvider</text>
</g>
<!-- \\BlueRaster\\PowerBIAuthProxy\\UserProviders\\MockUserProvider&#45;&gt;\\BlueRaster\\PowerBIAuthProxy\\UserProviders\\UserProvider -->
<g id="edge17" class="edge">
<title>\\BlueRaster\\PowerBIAuthProxy\\UserProviders\\MockUserProvider&#45;&gt;\\BlueRaster\\PowerBIAuthProxy\\UserProviders\\UserProvider</title>
<path fill="none" stroke="black" d="M270.41,-1061.63C248.75,-1057.16 224.27,-1052 202,-1047 184.46,-1043.07 165.44,-1038.57 148.13,-1034.38"/>
<polygon fill="none" stroke="black" points="148.7,-1030.92 138.16,-1031.96 147.05,-1037.72 148.7,-1030.92"/>
</g>
<!-- \\BlueRaster\\PowerBIAuthProxy\\UserProviders\\User -->
<g id="node21" class="node">
<title>\\BlueRaster\\PowerBIAuthProxy\\UserProviders\\User</title>
<polygon fill="none" stroke="black" points="360,-984 306,-984 306,-948 360,-948 360,-984"/>
<text text-anchor="middle" x="333" y="-963.2" font-family="Courier,monospace" font-size="11.00">User</text>
</g>
<!-- \\BlueRaster\\PowerBIAuthProxy\\UserProviders\\Prologin -->
<g id="node22" class="node">
<title>\\BlueRaster\\PowerBIAuthProxy\\UserProviders\\Prologin</title>
<polygon fill="none" stroke="black" points="368.5,-1038 297.5,-1038 297.5,-1002 368.5,-1002 368.5,-1038"/>
<text text-anchor="middle" x="333" y="-1017.2" font-family="Courier,monospace" font-size="11.00">Prologin</text>
</g>
<!-- \\BlueRaster\\PowerBIAuthProxy\\UserProviders\\Prologin&#45;&gt;\\BlueRaster\\PowerBIAuthProxy\\UserProviders\\UserProvider -->
<g id="edge18" class="edge">
<title>\\BlueRaster\\PowerBIAuthProxy\\UserProviders\\Prologin&#45;&gt;\\BlueRaster\\PowerBIAuthProxy\\UserProviders\\UserProvider</title>
<path fill="none" stroke="black" d="M297.33,-1020C258.57,-1020 195.15,-1020 148.64,-1020"/>
<polygon fill="none" stroke="black" points="148.4,-1016.5 138.4,-1020 148.4,-1023.5 148.4,-1016.5"/>
</g>
<!-- \\BlueRaster\\PowerBIAuthProxy\\UserProviders\\WordpressUser -->
<g id="node24" class="node">
<title>\\BlueRaster\\PowerBIAuthProxy\\UserProviders\\WordpressUser</title>
<polygon fill="none" stroke="black" points="385,-930 281,-930 281,-894 385,-894 385,-930"/>
<text text-anchor="middle" x="333" y="-909.2" font-family="Courier,monospace" font-size="11.00">WordpressUser</text>
</g>
<!-- \\BlueRaster\\PowerBIAuthProxy\\UserProviders\\WordpressUser&#45;&gt;\\BlueRaster\\PowerBIAuthProxy\\UserProviders\\UserProvider -->
<g id="edge19" class="edge">
<title>\\BlueRaster\\PowerBIAuthProxy\\UserProviders\\WordpressUser&#45;&gt;\\BlueRaster\\PowerBIAuthProxy\\UserProviders\\UserProvider</title>
<path fill="none" stroke="black" d="M280.69,-914.77C255.53,-918.03 225.63,-924.85 202,-939 172.67,-956.56 180.75,-978.53 152.65,-998 150.98,-999.16 149.24,-1000.26 147.45,-1001.31"/>
<polygon fill="none" stroke="black" points="145.44,-998.41 138.18,-1006.12 148.67,-1004.62 145.44,-998.41"/>
</g>
<!-- \\BlueRaster\\PowerBIAuthProxy\\Utils\\Csrf -->
<g id="node25" class="node">
<title>\\BlueRaster\\PowerBIAuthProxy\\Utils\\Csrf</title>
<polygon fill="none" stroke="black" points="360,-796 306,-796 306,-760 360,-760 360,-796"/>
<text text-anchor="middle" x="333" y="-775.2" font-family="Courier,monospace" font-size="11.00">Csrf</text>
</g>
<!-- \\BlueRaster\\PowerBIAuthProxy\\Views\\View -->
<g id="node26" class="node">
<title>\\BlueRaster\\PowerBIAuthProxy\\Views\\View</title>
<polygon fill="none" stroke="black" points="360,-716 306,-716 306,-680 360,-680 360,-716"/>
<text text-anchor="middle" x="333" y="-695.2" font-family="Courier,monospace" font-size="11.00">View</text>
</g>
<!-- \\BlueRaster\\PowerBIAuthProxy\\Auth -->
<g id="node27" class="node">
<title>\\BlueRaster\\PowerBIAuthProxy\\Auth</title>
<polygon fill="none" stroke="black" points="360,-662 306,-662 306,-626 360,-626 360,-662"/>
<text text-anchor="middle" x="333" y="-641.2" font-family="Courier,monospace" font-size="11.00">Auth</text>
</g>
<!-- \\BlueRaster\\PowerBIAuthProxy\\Command -->
<g id="node28" class="node">
<title>\\BlueRaster\\PowerBIAuthProxy\\Command</title>
<polygon fill="none" stroke="black" points="365,-608 301,-608 301,-572 365,-572 365,-608"/>
<text text-anchor="middle" x="333" y="-587.2" font-family="Courier,monospace" font-size="11.00">Command</text>
</g>
<!-- \\BlueRaster\\PowerBIAuthProxy\\DB -->
<g id="node29" class="node">
<title>\\BlueRaster\\PowerBIAuthProxy\\DB</title>
<polygon fill="none" stroke="black" points="360,-554 306,-554 306,-518 360,-518 360,-554"/>
<text text-anchor="middle" x="333" y="-533.2" font-family="Courier,monospace" font-size="11.00">DB</text>
</g>
<!-- \\BlueRaster\\PowerBIAuthProxy\\Embed -->
<g id="node30" class="node">
<title>\\BlueRaster\\PowerBIAuthProxy\\Embed</title>
<polygon fill="none" stroke="black" points="360,-500 306,-500 306,-464 360,-464 360,-500"/>
<text text-anchor="middle" x="333" y="-479.2" font-family="Courier,monospace" font-size="11.00">Embed</text>
</g>
<!-- Collection -->
<g id="node40" class="node">
<title>Collection</title>
<ellipse fill="none" stroke="black" cx="89" cy="-2434" rx="47.39" ry="18"/>
<text text-anchor="middle" x="89" y="-2430.3" font-family="Times,serif" font-size="14.00" fill="gray">Collection</text>
</g>
<!-- \\BlueRaster\\PowerBIAuthProxy\\Embed&#45;&gt;Collection -->
<g id="edge2" class="edge">
<title>\\BlueRaster\\PowerBIAuthProxy\\Embed&#45;&gt;Collection</title>
<path fill="none" stroke="black" d="M305.82,-478.88C275.64,-476.92 226.99,-479.12 202,-509 136.72,-587.06 183.44,-2243.01 152.65,-2340 144.49,-2365.7 127.02,-2390.91 112.6,-2408.74"/>
<polygon fill="none" stroke="black" points="109.53,-2406.95 105.82,-2416.88 114.91,-2411.44 109.53,-2406.95"/>
</g>
<!-- \\BlueRaster\\PowerBIAuthProxy\\Filesystem -->
<g id="node31" class="node">
<title>\\BlueRaster\\PowerBIAuthProxy\\Filesystem</title>
<polygon fill="none" stroke="black" points="375,-446 291,-446 291,-410 375,-410 375,-446"/>
<text text-anchor="middle" x="333" y="-425.2" font-family="Courier,monospace" font-size="11.00">Filesystem</text>
</g>
<!-- \\BlueRaster\\PowerBIAuthProxy\\ClassIterable -->
<g id="node32" class="node">
<title>\\BlueRaster\\PowerBIAuthProxy\\ClassIterable</title>
<polygon fill="none" stroke="black" points="385,-392 281,-392 281,-356 385,-356 385,-392"/>
<text text-anchor="middle" x="333" y="-371.2" font-family="Courier,monospace" font-size="11.00">ClassIterable</text>
</g>
<!-- \\BlueRaster\\PowerBIAuthProxy\\Installer -->
<g id="node33" class="node">
<title>\\BlueRaster\\PowerBIAuthProxy\\Installer</title>
<polygon fill="none" stroke="black" points="371.5,-338 294.5,-338 294.5,-302 371.5,-302 371.5,-338"/>
<text text-anchor="middle" x="333" y="-317.2" font-family="Courier,monospace" font-size="11.00">Installer</text>
</g>
<!-- \\BlueRaster\\PowerBIAuthProxy\\DefaultRoute -->
<g id="node35" class="node">
<title>\\BlueRaster\\PowerBIAuthProxy\\DefaultRoute</title>
<polygon fill="none" stroke="black" points="382,-284 284,-284 284,-248 382,-248 382,-284"/>
<text text-anchor="middle" x="333" y="-263.2" font-family="Courier,monospace" font-size="11.00">DefaultRoute</text>
</g>
<!-- \\BlueRaster\\PowerBIAuthProxy\\DefaultRoute&#45;&gt;\\BlueRaster\\PowerBIAuthProxy\\Route -->
<g id="edge12" class="edge">
<title>\\BlueRaster\\PowerBIAuthProxy\\DefaultRoute&#45;&gt;\\BlueRaster\\PowerBIAuthProxy\\Route</title>
<path fill="none" stroke="black" d="M283.69,-265.78C257.09,-267.99 224.91,-274.78 202,-293 132.42,-348.34 104.28,-456.75 94.5,-507.95"/>
<polygon fill="none" stroke="black" points="91.03,-507.5 92.69,-517.97 97.92,-508.75 91.03,-507.5"/>
</g>
<!-- \\BlueRaster\\PowerBIAuthProxy\\Routes -->
<g id="node36" class="node">
<title>\\BlueRaster\\PowerBIAuthProxy\\Routes</title>
<polygon fill="none" stroke="black" points="361.5,-230 304.5,-230 304.5,-194 361.5,-194 361.5,-230"/>
<text text-anchor="middle" x="333" y="-209.2" font-family="Courier,monospace" font-size="11.00">Routes</text>
</g>
<!-- \\BlueRaster\\PowerBIAuthProxy\\SafetyNet -->
<g id="node37" class="node">
<title>\\BlueRaster\\PowerBIAuthProxy\\SafetyNet</title>
<polygon fill="none" stroke="black" points="371.5,-176 294.5,-176 294.5,-140 371.5,-140 371.5,-176"/>
<text text-anchor="middle" x="333" y="-155.2" font-family="Courier,monospace" font-size="11.00">SafetyNet</text>
</g>
<!-- \\BlueRaster\\PowerBIAuthProxy\\UserProxy -->
<g id="node38" class="node">
<title>\\BlueRaster\\PowerBIAuthProxy\\UserProxy</title>
<polygon fill="none" stroke="black" points="371.5,-122 294.5,-122 294.5,-86 371.5,-86 371.5,-122"/>
<text text-anchor="middle" x="333" y="-101.2" font-family="Courier,monospace" font-size="11.00">UserProxy</text>
</g>
<!-- \\BlueRaster\\PowerBIAuthProxy\\Utils -->
<g id="node39" class="node">
<title>\\BlueRaster\\PowerBIAuthProxy\\Utils</title>
<polygon fill="none" stroke="black" points="360,-68 306,-68 306,-32 360,-32 360,-68"/>
<text text-anchor="middle" x="333" y="-47.2" font-family="Courier,monospace" font-size="11.00">Utils</text>
</g>
</g>
</svg>
